PathFileType	4	(X/Y/Z)	Patient4_TMGait_0pt5_02_left_41.trc.trc
DataRate	CameraRate	NumFrames	NumMarkers	Units	OrigDataRate	OrigDataStartFrame	OrigNumFrames
76.923076923077	76.923076923077	4	33	mm	76.923076923077	1	       141
Frame#	Time	Sacral			L.Shoulder			Chest			R.Shoulder			Neck			R.ASIS			L.ASIS			R.Thigh.Superior			R.Thigh.Lateral			R.Thigh.Inferior			R.Patella			L.Thigh.Superior			L.Thigh.Lateral			L.Thigh.Inferior			L.Patella			L.Shank.Superior			L.Shank.Lateral			L.Shank.Inferior			R.Shank.Superior			R.Shank.Lateral			R.Shank.Inferior			R.Heel			R.Midfoot.Superior			R.Midfoot.Lateral			R.Toe			L.Heel			L.Midfoot.Lateral			L.Midfoot.Superior			L.Toe			L.Elbow			L.Wrist			R.Elbow			R.Wrist			
		X1	Y1	Z1	X2	Y2	Z2	X3	Y3	Z3	X4	Y4	Z4	X5	Y5	Z5	X6	Y6	Z6	X7	Y7	Z7	X8	Y8	Z8	X9	Y9	Z9	X10	Y10	Z10	X11	Y11	Z11	X12	Y12	Z12	X13	Y13	Z13	X14	Y14	Z14	X15	Y15	Z15	X16	Y16	Z16	X17	Y17	Z17	X18	Y18	Z18	X19	Y19	Z19	X20	Y20	Z20	X21	Y21	Z21	X22	Y22	Z22	X23	Y23	Z23	X24	Y24	Z24	X25	Y25	Z25	X26	Y26	Z26	X27	Y27	Z27	X28	Y28	Z28	X29	Y29	Z29	X30	Y30	Z30	X31	Y31	Z31	X32	Y32	Z32	X33	Y33	Z33	

1	52.890000000000	702.685766423342	1011.749554210416	509.565039469748	891.046529771177	1433.315995125255	324.431365628479	994.419760979049	1358.211653489467	482.888591699479	918.794346518865	1434.426915709981	659.993622832078	899.121564223085	1494.113144902519	475.815067482734	932.468199825053	940.856407211617	619.400923766203	908.071724852347	960.671204976096	346.179931415290	974.116775663631	740.229168443291	585.850095708671	893.918001613382	632.941703659306	644.566253918422	966.895094747021	581.194172170802	558.765614565567	966.807714722627	492.174489912897	561.200978470814	990.485866032907	778.091140879957	380.596233902687	946.280032333024	651.566017414151	305.863579043777	1048.236640339380	589.395419559926	370.598785850802	1062.236967757455	500.495185377852	366.728986152223	1000.889453605145	430.850720580705	358.042595196406	865.065936199804	375.311270610364	306.463434426221	863.096190116595	245.877368766755	362.256378229568	938.348318940729	404.326379537185	569.758498106556	870.083556467667	300.799655609922	634.275852845993	906.881879395901	206.542196009925	567.177830758629	769.538362914525	42.991378489988	541.385050805287	941.852957511492	97.188783645928	571.572572919247	855.104952685144	36.783089648874	613.772267961412	1063.002583072897	43.681021305509	596.473579776956	676.887807916874	162.110622361979	396.293057313623	740.046184555440	128.803793863341	313.873461169700	843.931285604892	143.990058331474	337.800551644619	932.035948770423	42.000071783912	302.570569597098	864.106955789578	1075.485266507493	213.261308532210	975.607228982074	837.330454313077	214.711563929518	914.452654897627	1087.608399725313	782.567865077260	1105.089908781013	913.432872836943	740.821410851355	
2	52.903000000000	700.824057168085	1012.734786378176	511.214613939671	889.400314073114	1433.087960882999	324.424188592940	993.984473963907	1357.991707973874	482.025254328631	920.420911647784	1435.067049199409	659.600769097827	899.064065506014	1494.251693035117	475.473674361602	930.715183930003	940.766758908529	619.554804278404	905.273880388450	961.527832928947	346.446981852686	970.276992110732	739.754680105053	585.272046985078	889.662989119629	633.105125925205	644.861656224975	961.314996594443	580.835790299048	558.714303185900	960.592696701452	491.934112077780	561.419718704795	988.962365165783	780.875741028354	381.320175133713	946.507134348741	653.879107456954	306.332145647693	1048.106512088667	592.635844997473	371.682543620603	1063.905963201617	505.267179193516	367.532183191278	1006.607627157688	434.408521675429	357.750341903731	875.784005006260	370.927107280015	305.223007698354	882.463904183019	241.946178820448	360.250145852313	932.023649109529	404.123671383652	569.961011802231	863.591359322606	300.702069600701	634.376806329447	900.206544317337	206.437468629797	567.281143768319	762.629980397533	42.934565233116	541.411024148526	934.890505639340	97.126304678171	571.587770443020	848.154649848214	36.744851889784	613.788958449543	1056.044597084849	43.686549654191	596.489190556892	703.906682012036	146.046651626220	393.437579657270	768.623159267166	117.900698019303	310.890494951227	870.437167873945	139.861067893740	335.094571773160	964.638722008099	45.092031528734	299.383618425894	854.512076962075	1075.456259591206	215.474628399285	951.041809396213	832.793740921287	216.011999174459	925.399599895832	1089.930261755895	783.396267710816	1126.171838761872	934.605420118564	736.190200007233	
3	52.916000000000	698.991035104578	1013.693695807203	512.816458050550	887.803123576415	1432.849660277781	324.396480869929	993.561833426740	1357.735623364196	481.153753462724	922.028340800573	1435.661108048204	659.186891645035	899.010711173258	1494.362509469016	475.124694011712	928.969831696041	940.662674360220	619.713143062633	902.536569659839	962.321994513699	346.709249640223	966.501818847958	739.275650757363	584.728964415423	885.475198920256	633.252875591829	645.166369098365	955.832484094484	580.477835094667	558.674440814566	954.477783356471	491.685524608866	561.639430743968	987.353326465686	783.476628278725	382.030218962637	946.531796815882	656.060415776701	306.721959158657	1047.737788522291	595.676131530986	372.752230885995	1065.348798601732	509.919852703471	368.321412023420	1012.120375368480	437.923590068129	357.479259828052	886.540627820502	366.565759116296	303.892547709522	901.780508638452	238.206186331307	358.304530273665	925.797641562401	403.908414610998	570.161978211401	857.182043090001	300.592544363239	634.478175985323	893.596442291249	206.319571969602	567.379472607406	755.768066785313	42.878253360014	541.434870826305	927.978168447589	97.066939790087	571.600162578599	841.254888676163	36.708142030196	613.807443499697	1049.135837254026	43.693743675370	596.504384645498	731.058467896516	130.306091585758	390.503258017494	797.372638624188	107.325466544399	307.952784360556	896.942138830703	136.032077103089	332.548034144607	997.158431481339	48.587252497138	296.599350787950	844.968238823322	1075.483593207830	217.619766505714	926.736370725200	828.548881078179	217.344737006556	936.311277470774	1092.244433849860	784.135716744194	1146.774668771288	955.848857391256	731.473650847744	
4	52.929000000000	697.215483472020	1014.598300485369	514.316988623778	886.297952387446	1432.594347340568	324.323986981861	993.160511716186	1357.417934534831	480.263790451827	923.587708335770	1436.170719382049	658.727184257594	898.962375711637	1494.422569422415	474.754661670646	927.250105170017	940.529659370732	619.865967532029	899.916721235971	963.000976066008	346.947681752850	962.857256327945	738.784796671300	584.238738555661	881.424611793121	633.366190079515	645.473783076978	950.547227776449	580.114501256129	558.643304743387	948.565877007315	491.415819876691	561.849050861365	985.595080231448	785.734182042186	382.700332511356	946.203008499317	657.996851901393	306.962759209199	1046.954886902413	598.345259099142	373.769028245092	1066.376794418460	514.327144015410	369.064526831701	1017.229699191641	441.343573306970	357.228434066483	897.272932591480	362.286006588781	302.435613036304	920.875309016279	234.856092536712	356.480112934199	919.760433471359	403.662790366033	570.346940576784	850.935189375793	300.463774684874	634.574696811435	887.108707967346	206.176293953807	567.464064880999	748.987401265532	42.825176898403	541.455166582265	921.154196830365	97.012967053723	571.607261786301	834.443592159175	36.675789311573	613.828998467076	1042.313867688321	43.701240350774	596.518980008001	758.268952125305	115.296569246999	387.509270647253	826.215934893101	97.434412179142	305.150891824053	923.260786709780	132.784365152238	330.296974937246	1029.285420227411	52.783189833798	294.506627162428	835.541181201042	1075.631388362227	219.625669930275	902.998098206400	824.875630838735	218.738885672650	947.145373858524	1094.560854797742	784.670462485986	1166.377419643611	977.180004138205	726.586839014074	
